<svg width="634.4650390625px" height="132.83749999999998px" xmlns="http://www.w3.org/2000/svg" viewBox="-67.23251953124998 8.581250000000011 634.4650390625 132.83749999999998" style="background: rgb(255, 255, 255);" preserveAspectRatio="xMidYMid"><defs><filter id="editing-hole" x="-100%" y="-100%" width="300%" height="300%"><feFlood flood-color="#cfd7cc" result="black"></feFlood><feMorphology operator="dilate" radius="2" in="SourceGraphic" result="erode"></feMorphology><feGaussianBlur in="erode" stdDeviation="4" result="blur"></feGaussianBlur><feOffset in="blur" dx="2" dy="2" result="offset"></feOffset><feComposite operator="atop" in="offset" in2="black" result="merge"></feComposite><feComposite operator="in" in="merge" in2="SourceGraphic" result="inner-shadow"></feComposite></filter></defs><g filter="url(#editing-hole)"><g transform="translate(23.83500099182129, 101.05999946594238)"><path d="M37.51-42.47L32.25-37.77L32.25-37.77Q30.79-39.42 29.14-40.24L29.14-40.24L29.14-40.24Q27.49-41.07 25.58-41.20L25.58-41.20L25.58-47.48L25.58-47.48Q32.69-47.16 37.51-42.47L37.51-42.47ZM25.58 0.32L25.58-5.97L25.58-5.97Q27.49-6.16 29.17-6.98L29.17-6.98L29.17-6.98Q30.85-7.81 32.25-9.39L32.25-9.39L37.51-4.76L37.51-4.76Q35.10-2.41 32.12-1.14L32.12-1.14L32.12-1.14Q29.14 0.13 25.58 0.32L25.58 0.32ZM5.01-23.61L5.01-23.61L5.01-23.61Q5.01-29.26 6.38-33.58L6.38-33.58L6.38-33.58Q7.74-37.90 10.16-40.88L10.16-40.88L10.16-40.88Q12.57-43.86 15.84-45.51L15.84-45.51L15.84-45.51Q19.11-47.16 22.98-47.48L22.98-47.48L22.98-41.13L22.98-41.13Q20.88-40.82 19.04-39.70L19.04-39.70L19.04-39.70Q17.20-38.59 15.81-36.50L15.81-36.50L15.81-36.50Q14.41-34.40 13.62-31.20L13.62-31.20L13.62-31.20Q12.82-27.99 12.76-23.61L12.76-23.61L12.76-23.61Q12.82-19.17 13.62-16.00L13.62-16.00L13.62-16.00Q14.41-12.82 15.81-10.66L15.81-10.66L15.81-10.66Q17.20-8.51 19.07-7.36L19.07-7.36L19.07-7.36Q20.95-6.22 22.98-5.97L22.98-5.97L22.98 0.25L22.98 0.25Q19.11 0 15.84-1.65L15.84-1.65L15.84-1.65Q12.57-3.30 10.16-6.28L10.16-6.28L10.16-6.28Q7.74-9.27 6.38-13.62L6.38-13.62L6.38-13.62Q5.01-17.96 5.01-23.61ZM54.27-10.79L54.27-10.79L54.27-10.79Q54.27-7.93 55.45-6.54L55.45-6.54L55.45-6.54Q56.62-5.14 58.84-4.89L58.84-4.89L58.84 0.25L58.84 0.25Q58.59 0.32 58.02 0.32L58.02 0.32L58.02 0.32Q55.86 0.32 53.86-0.25L53.86-0.25L53.86-0.25Q51.86-0.83 50.34-2.09L50.34-2.09L50.34-2.09Q48.81-3.36 47.96-5.46L47.96-5.46L47.96-5.46Q47.10-7.55 47.10-10.60L47.10-10.60L47.10-10.60Q47.10-13.52 48.34-15.65L48.34-15.65L48.34-15.65Q49.58-17.77 51.51-19.14L51.51-19.14L51.51-19.14Q53.45-20.50 55.92-21.17L55.92-21.17L55.92-21.17Q58.40-21.84 60.94-21.84L60.94-21.84L63.73-21.84L63.73-17.33L62.33-17.33L62.33-17.33Q61.06-17.33 59.67-17.08L59.67-17.08L59.67-17.08Q58.27-16.82 57.07-16.12L57.07-16.12L57.07-16.12Q55.86-15.42 55.07-14.12L55.07-14.12L55.07-14.12Q54.27-12.82 54.27-10.79ZM74.01-11.11L74.01-10.60L74.01-10.60Q74.01-10.09 74.08-9.11L74.08-9.11L74.08-9.11Q74.14-8.13 74.33-7.11L74.33-7.11L74.33-7.11Q74.52-6.09 74.93-5.27L74.93-5.27L74.93-5.27Q75.35-4.44 76.04-4.19L76.04-4.19L74.01 0.06L74.01 0.06Q73.19 0.06 72.27-0.32L72.27-0.32L72.27-0.32Q71.35-0.70 70.49-1.40L70.49-1.40L70.49-1.40Q69.63-2.09 69.03-2.95L69.03-2.95L69.03-2.95Q68.43-3.81 68.11-4.82L68.11-4.82L68.11-4.82Q67.48-3.24 65.60-2.00L65.60-2.00L65.60-2.00Q63.73-0.76 61.45-0.19L61.45-0.19L61.45-5.01L61.45-5.01Q62.97-5.33 64.21-6.25L64.21-6.25L64.21-6.25Q65.44-7.17 66.33-8.44L66.33-8.44L66.33-21.84L66.33-21.84Q66.33-24.95 66.02-26.79L66.02-26.79L66.02-26.79Q65.70-28.63 64.94-29.48L64.94-29.48L64.94-29.48Q64.17-30.34 63.06-30.56L63.06-30.56L63.06-30.56Q61.95-30.79 60.43-30.79L60.43-30.79L60.43-30.79Q59.03-30.79 57.80-30.44L57.80-30.44L57.80-30.44Q56.56-30.09 55.51-29.61L55.51-29.61L55.51-29.61Q54.46-29.14 53.67-28.56L53.67-28.56L53.67-28.56Q52.88-27.99 52.50-27.68L52.50-27.68L49.64-32.06L49.64-32.06Q50.27-32.75 51.54-33.48L51.54-33.48L51.54-33.48Q52.81-34.21 54.46-34.79L54.46-34.79L54.46-34.79Q56.11-35.36 58.05-35.71L58.05-35.71L58.05-35.71Q59.99-36.05 62.08-36.05L62.08-36.05L62.08-36.05Q63.98-36.05 65.79-35.67L65.79-35.67L65.79-35.67Q67.60-35.29 69.09-34.40L69.09-34.40L69.09-34.40Q70.59-33.52 71.70-32.02L71.70-32.02L71.70-32.02Q72.81-30.53 73.25-28.31L73.25-28.31L73.25-28.31Q73.70-26.09 73.85-23.84L73.85-23.84L73.85-23.84Q74.01-21.58 74.01-19.36L74.01-19.36L74.01-11.11ZM86.14-35.80L92.99-35.80L93.82-32.12L93.82-12.70L93.82-12.57L93.82 0L86.14 0L86.14-35.80ZM96.42-27.74L96.42-34.21L96.42-34.21Q98.01-35.10 100.23-35.58L100.23-35.58L100.23-35.58Q102.45-36.05 106.26-36.05L106.26-36.05L106.26-28.06L106.26-28.06Q104.48-28.56 101.94-28.63L101.94-28.63L101.94-28.63Q100.55-28.63 99.12-28.41L99.12-28.41L99.12-28.41Q97.69-28.18 96.42-27.74L96.42-27.74ZM122.07-49.32L122.07-10.92L122.07-10.92Q122.07-8.76 122.64-7.52L122.64-7.52L122.64-7.52Q123.21-6.28 124.22-5.68L124.22-5.68L124.22-5.68Q125.24-5.08 126.54-4.89L126.54-4.89L126.54-4.89Q127.84-4.70 129.37-4.70L129.37-4.70L129.37 0L129.37 0Q128.54 0.13 127.65 0.19L127.65 0.19L127.65 0.19Q126.95 0.25 126.00 0.29L126.00 0.29L126.00 0.29Q125.05 0.32 124.10 0.32L124.10 0.32L124.10 0.32Q123.14 0.32 122.19 0.25L122.19 0.25L122.19 0.25Q121.24 0.19 120.48 0.06L120.48 0.06L120.48 0.06Q118.32-0.38 117.11-1.84L117.11-1.84L117.11-1.84Q115.91-3.30 115.27-5.11L115.27-5.11L115.27-5.11Q114.64-6.92 114.48-8.63L114.48-8.63L114.48-8.63Q114.32-10.35 114.32-11.30L114.32-11.30L114.32-12.06L114.32-49.32L122.07-49.32ZM154.31-30.02L154.31-35.99L154.31-35.99Q157.80-35.80 160.66-34.31L160.66-34.31L160.66-34.31Q163.52-32.82 165.45-30.37L165.45-30.37L165.45-30.37Q167.39-27.93 168.47-24.69L168.47-24.69L168.47-24.69Q169.55-21.46 169.55-17.77L169.55-17.77L169.55-17.77Q169.55-14.09 168.44-10.89L168.44-10.89L168.44-10.89Q167.32-7.68 165.36-5.30L165.36-5.30L165.36-5.30Q163.39-2.92 160.53-1.46L160.53-1.46L160.53-1.46Q157.68 0 154.31 0.25L154.31 0.25L154.31-5.84L154.31-5.84Q157.49-6.54 159.48-9.84L159.48-9.84L159.48-9.84Q161.48-13.14 161.48-17.77L161.48-17.77L161.48-17.77Q161.48-20.12 161.01-22.19L161.01-22.19L161.01-22.19Q160.53-24.25 159.58-25.90L159.58-25.90L159.58-25.90Q158.63-27.55 157.29-28.63L157.29-28.63L157.29-28.63Q155.96-29.71 154.31-30.02L154.31-30.02ZM136.60-17.90L136.60-17.90L136.60-17.90Q136.60-21.58 137.68-24.76L137.68-24.76L137.68-24.76Q138.76-27.93 140.76-30.31L140.76-30.31L140.76-30.31Q142.76-32.69 145.55-34.15L145.55-34.15L145.55-34.15Q148.34-35.61 151.71-35.93L151.71-35.93L151.71-30.02L151.71-30.02Q148.54-29.33 146.63-26.03L146.63-26.03L146.63-26.03Q144.73-22.72 144.73-18.09L144.73-18.09L144.73-18.09Q144.73-15.74 145.20-13.65L145.20-13.65L145.20-13.65Q145.68-11.55 146.57-9.90L146.57-9.90L146.57-9.90Q147.46-8.25 148.76-7.17L148.76-7.17L148.76-7.17Q150.06-6.09 151.71-5.84L151.71-5.84L151.71 0.25L151.71 0.25Q148.22 0 145.42-1.49L145.42-1.49L145.42-1.49Q142.63-2.98 140.66-5.40L140.66-5.40L140.66-5.40Q138.70-7.81 137.65-11.04L137.65-11.04L137.65-11.04Q136.60-14.28 136.60-17.90ZM178.69-25.58L178.69-25.58L178.69-25.58Q178.69-27.99 179.58-29.93L179.58-29.93L179.58-29.93Q180.46-31.87 182.05-33.23L182.05-33.23L182.05-33.23Q183.64-34.59 185.64-35.39L185.64-35.39L185.64-35.39Q187.64-36.18 189.79-36.37L189.79-36.37L189.79-30.02L189.79-30.02Q188.14-29.71 187.22-28.69L187.22-28.69L187.22-28.69Q186.30-27.68 186.30-25.83L186.30-25.83L186.30-25.83Q186.30-24.31 187.29-23.39L187.29-23.39L187.29-23.39Q188.27-22.47 189.79-21.77L189.79-21.77L189.79-14.98L189.79-14.98Q188.72-15.30 187.60-15.71L187.60-15.71L187.60-15.71Q186.49-16.12 185.42-16.63L185.42-16.63L185.42-16.63Q182.05-18.41 180.37-20.38L180.37-20.38L180.37-20.38Q178.69-22.34 178.69-25.58ZM202.36-33.52L199.89-28.25L199.89-28.25Q198.17-29.14 196.24-29.58L196.24-29.58L196.24-29.58Q194.30-30.02 192.40-30.15L192.40-30.15L192.40-36.44L192.40-36.44Q195.25-36.31 197.67-35.64L197.67-35.64L197.67-35.64Q200.08-34.98 202.36-33.52L202.36-33.52ZM178.81-2.86L182.05-8.00L182.05-8.00Q183.32-7.11 185.07-6.35L185.07-6.35L185.07-6.35Q186.81-5.59 189.48-5.59L189.48-5.59L189.79-5.59L189.79 0.32L189.79 0.32Q188.21 0.32 186.88 0.22L186.88 0.22L186.88 0.22Q185.54 0.13 184.24-0.22L184.24-0.22L184.24-0.22Q182.94-0.57 181.61-1.21L181.61-1.21L181.61-1.21Q180.27-1.84 178.81-2.86L178.81-2.86ZM192.40-14.03L192.40-20.76L192.40-20.76Q194.30-20.12 196.27-19.36L196.27-19.36L196.27-19.36Q198.24-18.60 199.86-17.46L199.86-17.46L199.86-17.46Q201.47-16.31 202.52-14.63L202.52-14.63L202.52-14.63Q203.57-12.95 203.57-10.41L203.57-10.41L203.57-10.41Q203.57-7.93 202.68-6.09L202.68-6.09L202.68-6.09Q201.79-4.25 200.30-2.92L200.30-2.92L200.30-2.92Q198.81-1.59 196.78-0.83L196.78-0.83L196.78-0.83Q194.75-0.06 192.40 0.19L192.40 0.19L192.40-5.84L192.40-5.84Q194.56-6.22 195.73-7.20L195.73-7.20L195.73-7.20Q196.90-8.19 196.90-9.84L196.90-9.84L196.90-9.84Q196.90-11.49 195.60-12.41L195.60-12.41L195.60-12.41Q194.30-13.33 192.40-14.03L192.40-14.03ZM252.83-39.55L252.83-39.55L252.83-39.55Q252.51-39.67 252.07-39.99L252.07-39.99L252.07-39.99Q251.62-40.31 250.80-40.59L250.80-40.59L250.80-40.59Q249.97-40.88 248.70-41.07L248.70-41.07L248.70-41.07Q247.43-41.26 245.46-41.13L245.46-41.13L245.46-47.54L245.46-47.54Q248.26-47.48 251.15-46.94L251.15-46.94L251.15-46.94Q254.03-46.40 255.81-45.26L255.81-45.26L255.81-45.26Q255.43-44.43 254.92-43.45L254.92-43.45L254.92-43.45Q254.41-42.47 253.97-41.61L253.97-41.61L253.97-41.61Q253.53-40.75 253.21-40.18L253.21-40.18L253.21-40.18Q252.89-39.61 252.83-39.55ZM230.93-34.47L230.93-34.47L230.93-34.47Q230.93-37.26 231.88-39.48L231.88-39.48L231.88-39.48Q232.83-41.70 234.45-43.39L234.45-43.39L234.45-43.39Q236.07-45.07 238.26-46.05L238.26-46.05L238.26-46.05Q240.45-47.04 242.86-47.35L242.86-47.35L242.86-40.69L242.86-40.69Q240.83-39.99 239.50-38.24L239.50-38.24L239.50-38.24Q238.16-36.50 238.16-34.72L238.16-34.72L238.16-34.72Q238.16-32.25 239.50-30.72L239.50-30.72L239.50-30.72Q240.83-29.20 242.86-28.06L242.86-28.06L242.86-20.82L242.86-20.82Q240.77-21.84 238.67-23.01L238.67-23.01L238.67-23.01Q236.58-24.18 234.86-25.77L234.86-25.77L234.86-25.77Q233.15-27.36 232.04-29.45L232.04-29.45L232.04-29.45Q230.93-31.55 230.93-34.47ZM230.61-3.11L231.94-8.57L231.94-8.57Q232.83-8.06 234.20-7.59L234.20-7.59L234.20-7.59Q235.56-7.11 237.02-6.70L237.02-6.70L237.02-6.70Q238.48-6.28 239.94-6.03L239.94-6.03L239.94-6.03Q241.40-5.78 242.67-5.78L242.67-5.78L242.86-5.78L242.86 0.25L242.73 0.25L242.73 0.25Q241.21 0.25 239.59 0.10L239.59 0.10L239.59 0.10Q237.97-0.06 236.32-0.44L236.32-0.44L236.32-0.44Q234.67-0.83 233.18-1.49L233.18-1.49L233.18-1.49Q231.69-2.16 230.61-3.11L230.61-3.11ZM245.46-19.36L245.46-26.79L245.46-26.79Q247.56-25.83 249.75-24.76L249.75-24.76L249.75-24.76Q251.94-23.68 253.72-22.12L253.72-22.12L253.72-22.12Q255.49-20.57 256.64-18.34L256.64-18.34L256.64-18.34Q257.78-16.12 257.78-12.82L257.78-12.82L257.78-12.82Q257.78-10.54 256.92-8.38L256.92-8.38L256.92-8.38Q256.06-6.22 254.51-4.48L254.51-4.48L254.51-4.48Q252.95-2.73 250.67-1.52L250.67-1.52L250.67-1.52Q248.38-0.32 245.46 0.06L245.46 0.06L245.46-6.03L245.46-6.03Q250.67-7.30 250.67-12.95L250.67-12.95L250.67-12.95Q250.67-15.17 249.21-16.63L249.21-16.63L249.21-16.63Q247.75-18.09 245.46-19.36L245.46-19.36ZM271.55-10.79L271.55-10.79L271.55-10.79Q271.55-7.93 272.73-6.54L272.73-6.54L272.73-6.54Q273.90-5.14 276.12-4.89L276.12-4.89L276.12 0.25L276.12 0.25Q275.87 0.32 275.30 0.32L275.30 0.32L275.30 0.32Q273.14 0.32 271.14-0.25L271.14-0.25L271.14-0.25Q269.14-0.83 267.62-2.09L267.62-2.09L267.62-2.09Q266.09-3.36 265.24-5.46L265.24-5.46L265.24-5.46Q264.38-7.55 264.38-10.60L264.38-10.60L264.38-10.60Q264.38-13.52 265.62-15.65L265.62-15.65L265.62-15.65Q266.86-17.77 268.79-19.14L268.79-19.14L268.79-19.14Q270.73-20.50 273.20-21.17L273.20-21.17L273.20-21.17Q275.68-21.84 278.22-21.84L278.22-21.84L281.01-21.84L281.01-17.33L279.61-17.33L279.61-17.33Q278.34-17.33 276.95-17.08L276.95-17.08L276.95-17.08Q275.55-16.82 274.35-16.12L274.35-16.12L274.35-16.12Q273.14-15.42 272.35-14.12L272.35-14.12L272.35-14.12Q271.55-12.82 271.55-10.79ZM291.29-11.11L291.29-10.60L291.29-10.60Q291.29-10.09 291.36-9.11L291.36-9.11L291.36-9.11Q291.42-8.13 291.61-7.11L291.61-7.11L291.61-7.11Q291.80-6.09 292.21-5.27L292.21-5.27L292.21-5.27Q292.63-4.44 293.33-4.19L293.33-4.19L291.29 0.06L291.29 0.06Q290.47 0.06 289.55-0.32L289.55-0.32L289.55-0.32Q288.63-0.70 287.77-1.40L287.77-1.40L287.77-1.40Q286.91-2.09 286.31-2.95L286.31-2.95L286.31-2.95Q285.71-3.81 285.39-4.82L285.39-4.82L285.39-4.82Q284.76-3.24 282.88-2.00L282.88-2.00L282.88-2.00Q281.01-0.76 278.73-0.19L278.73-0.19L278.73-5.01L278.73-5.01Q280.25-5.33 281.49-6.25L281.49-6.25L281.49-6.25Q282.72-7.17 283.61-8.44L283.61-8.44L283.61-21.84L283.61-21.84Q283.61-24.95 283.30-26.79L283.30-26.79L283.30-26.79Q282.98-28.63 282.22-29.48L282.22-29.48L282.22-29.48Q281.46-30.34 280.34-30.56L280.34-30.56L280.34-30.56Q279.23-30.79 277.71-30.79L277.71-30.79L277.71-30.79Q276.31-30.79 275.08-30.44L275.08-30.44L275.08-30.44Q273.84-30.09 272.79-29.61L272.79-29.61L272.79-29.61Q271.74-29.14 270.95-28.56L270.95-28.56L270.95-28.56Q270.16-27.99 269.78-27.68L269.78-27.68L266.92-32.06L266.92-32.06Q267.55-32.75 268.82-33.48L268.82-33.48L268.82-33.48Q270.09-34.21 271.74-34.79L271.74-34.79L271.74-34.79Q273.39-35.36 275.33-35.71L275.33-35.71L275.33-35.71Q277.27-36.05 279.36-36.05L279.36-36.05L279.36-36.05Q281.26-36.05 283.07-35.67L283.07-35.67L283.07-35.67Q284.88-35.29 286.37-34.40L286.37-34.40L286.37-34.40Q287.87-33.52 288.98-32.02L288.98-32.02L288.98-32.02Q290.09-30.53 290.53-28.31L290.53-28.31L290.53-28.31Q290.98-26.09 291.14-23.84L291.14-23.84L291.14-23.84Q291.29-21.58 291.29-19.36L291.29-19.36L291.29-11.11ZM311.04-49.32L311.04-10.92L311.04-10.92Q311.04-8.76 311.61-7.52L311.61-7.52L311.61-7.52Q312.18-6.28 313.19-5.68L313.19-5.68L313.19-5.68Q314.21-5.08 315.51-4.89L315.51-4.89L315.51-4.89Q316.81-4.70 318.33-4.70L318.33-4.70L318.33 0L318.33 0Q317.51 0.13 316.62 0.19L316.62 0.19L316.62 0.19Q315.92 0.25 314.97 0.29L314.97 0.29L314.97 0.29Q314.02 0.32 313.07 0.32L313.07 0.32L313.07 0.32Q312.11 0.32 311.16 0.25L311.16 0.25L311.16 0.25Q310.21 0.19 309.45 0.06L309.45 0.06L309.45 0.06Q307.29-0.38 306.08-1.84L306.08-1.84L306.08-1.84Q304.88-3.30 304.24-5.11L304.24-5.11L304.24-5.11Q303.61-6.92 303.45-8.63L303.45-8.63L303.45-8.63Q303.29-10.35 303.29-11.30L303.29-11.30L303.29-12.06L303.29-49.32L311.04-49.32ZM334.14-35.80L334.14 0L326.40 0L326.40-35.80L334.14-35.80ZM334.84-47.23L334.84-47.23L334.84-47.23Q334.84-45.32 333.51-44.02L333.51-44.02L333.51-44.02Q332.17-42.72 330.27-42.72L330.27-42.72L330.27-42.72Q328.36-42.72 327.06-44.05L327.06-44.05L327.06-44.05Q325.76-45.39 325.76-47.23L325.76-47.23L325.76-47.23Q325.76-49.13 327.09-50.46L327.09-50.46L327.09-50.46Q328.43-51.80 330.27-51.80L330.27-51.80L330.27-51.80Q332.17-51.80 333.51-50.46L333.51-50.46L333.51-50.46Q334.84-49.13 334.84-47.23ZM344.93-35.80L351.79-35.80L352.61-32.18L352.61 0L344.93 0L344.93-35.80ZM371.59-31.87L371.59-31.87L371.59-31.87Q372.67-30.79 373.27-29.36L373.27-29.36L373.27-29.36Q373.88-27.93 374.16-26.37L374.16-26.37L374.16-26.37Q374.45-24.82 374.51-23.23L374.51-23.23L374.51-23.23Q374.58-21.65 374.58-20.12L374.58-20.12L374.58-1.27L374.58 0L366.83 0L366.83-19.49L366.83-19.49Q366.83-21.65 366.64-23.61L366.64-23.61L366.64-23.61Q366.45-25.58 365.75-27.10L365.75-27.10L365.75-27.10Q365.05-28.63 363.85-29.48L363.85-29.48L363.85-29.48Q362.64-30.34 360.48-30.34L360.48-30.34L360.48-30.34Q359.59-30.34 358.10-30.06L358.10-30.06L358.10-30.06Q356.61-29.77 355.21-29.14L355.21-29.14L355.21-34.02L355.21-34.02Q356.93-34.91 358.93-35.55L358.93-35.55L358.93-35.55Q360.93-36.18 362.83-36.18L362.83-36.18L362.83-36.18Q365.69-36.18 367.66-35.01L367.66-35.01L367.66-35.01Q369.62-33.83 371.59-31.87ZM391.40-10.79L391.40-10.79L391.40-10.79Q391.40-7.93 392.57-6.54L392.57-6.54L392.57-6.54Q393.75-5.14 395.97-4.89L395.97-4.89L395.97 0.25L395.97 0.25Q395.71 0.32 395.14 0.32L395.14 0.32L395.14 0.32Q392.98 0.32 390.98-0.25L390.98-0.25L390.98-0.25Q388.98-0.83 387.46-2.09L387.46-2.09L387.46-2.09Q385.94-3.36 385.08-5.46L385.08-5.46L385.08-5.46Q384.22-7.55 384.22-10.60L384.22-10.60L384.22-10.60Q384.22-13.52 385.46-15.65L385.46-15.65L385.46-15.65Q386.70-17.77 388.64-19.14L388.64-19.14L388.64-19.14Q390.57-20.50 393.05-21.17L393.05-21.17L393.05-21.17Q395.52-21.84 398.06-21.84L398.06-21.84L400.85-21.84L400.85-17.33L399.46-17.33L399.46-17.33Q398.19-17.33 396.79-17.08L396.79-17.08L396.79-17.08Q395.40-16.82 394.19-16.12L394.19-16.12L394.19-16.12Q392.98-15.42 392.19-14.12L392.19-14.12L392.19-14.12Q391.40-12.82 391.40-10.79ZM411.14-11.11L411.14-10.60L411.14-10.60Q411.14-10.09 411.20-9.11L411.20-9.11L411.20-9.11Q411.26-8.13 411.46-7.11L411.46-7.11L411.46-7.11Q411.65-6.09 412.06-5.27L412.06-5.27L412.06-5.27Q412.47-4.44 413.17-4.19L413.17-4.19L411.14 0.06L411.14 0.06Q410.31 0.06 409.39-0.32L409.39-0.32L409.39-0.32Q408.47-0.70 407.61-1.40L407.61-1.40L407.61-1.40Q406.76-2.09 406.15-2.95L406.15-2.95L406.15-2.95Q405.55-3.81 405.23-4.82L405.23-4.82L405.23-4.82Q404.60-3.24 402.73-2.00L402.73-2.00L402.73-2.00Q400.85-0.76 398.57-0.19L398.57-0.19L398.57-5.01L398.57-5.01Q400.09-5.33 401.33-6.25L401.33-6.25L401.33-6.25Q402.57-7.17 403.46-8.44L403.46-8.44L403.46-21.84L403.46-21.84Q403.46-24.95 403.14-26.79L403.14-26.79L403.14-26.79Q402.82-28.63 402.06-29.48L402.06-29.48L402.06-29.48Q401.30-30.34 400.19-30.56L400.19-30.56L400.19-30.56Q399.08-30.79 397.55-30.79L397.55-30.79L397.55-30.79Q396.16-30.79 394.92-30.44L394.92-30.44L394.92-30.44Q393.68-30.09 392.63-29.61L392.63-29.61L392.63-29.61Q391.59-29.14 390.79-28.56L390.79-28.56L390.79-28.56Q390-27.99 389.62-27.68L389.62-27.68L386.76-32.06L386.76-32.06Q387.40-32.75 388.67-33.48L388.67-33.48L388.67-33.48Q389.94-34.21 391.59-34.79L391.59-34.79L391.59-34.79Q393.24-35.36 395.17-35.71L395.17-35.71L395.17-35.71Q397.11-36.05 399.20-36.05L399.20-36.05L399.20-36.05Q401.11-36.05 402.92-35.67L402.92-35.67L402.92-35.67Q404.73-35.29 406.22-34.40L406.22-34.40L406.22-34.40Q407.71-33.52 408.82-32.02L408.82-32.02L408.82-32.02Q409.93-30.53 410.38-28.31L410.38-28.31L410.38-28.31Q410.82-26.09 410.98-23.84L410.98-23.84L410.98-23.84Q411.14-21.58 411.14-19.36L411.14-19.36L411.14-11.11ZM422.44-25.58L422.44-25.58L422.44-25.58Q422.44-27.99 423.33-29.93L423.33-29.93L423.33-29.93Q424.21-31.87 425.80-33.23L425.80-33.23L425.80-33.23Q427.39-34.59 429.39-35.39L429.39-35.39L429.39-35.39Q431.39-36.18 433.54-36.37L433.54-36.37L433.54-30.02L433.54-30.02Q431.89-29.71 430.97-28.69L430.97-28.69L430.97-28.69Q430.05-27.68 430.05-25.83L430.05-25.83L430.05-25.83Q430.05-24.31 431.04-23.39L431.04-23.39L431.04-23.39Q432.02-22.47 433.54-21.77L433.54-21.77L433.54-14.98L433.54-14.98Q432.47-15.30 431.35-15.71L431.35-15.71L431.35-15.71Q430.24-16.12 429.17-16.63L429.17-16.63L429.17-16.63Q425.80-18.41 424.12-20.38L424.12-20.38L424.12-20.38Q422.44-22.34 422.44-25.58ZM446.11-33.52L443.64-28.25L443.64-28.25Q441.92-29.14 439.99-29.58L439.99-29.58L439.99-29.58Q438.05-30.02 436.15-30.15L436.15-30.15L436.15-36.44L436.15-36.44Q439.00-36.31 441.42-35.64L441.42-35.64L441.42-35.64Q443.83-34.98 446.11-33.52L446.11-33.52ZM422.56-2.86L425.80-8.00L425.80-8.00Q427.07-7.11 428.82-6.35L428.82-6.35L428.82-6.35Q430.56-5.59 433.23-5.59L433.23-5.59L433.54-5.59L433.54 0.32L433.54 0.32Q431.96 0.32 430.63 0.22L430.63 0.22L430.63 0.22Q429.29 0.13 427.99-0.22L427.99-0.22L427.99-0.22Q426.69-0.57 425.36-1.21L425.36-1.21L425.36-1.21Q424.02-1.84 422.56-2.86L422.56-2.86ZM436.15-14.03L436.15-20.76L436.15-20.76Q438.05-20.12 440.02-19.36L440.02-19.36L440.02-19.36Q441.99-18.60 443.61-17.46L443.61-17.46L443.61-17.46Q445.22-16.31 446.27-14.63L446.27-14.63L446.27-14.63Q447.32-12.95 447.32-10.41L447.32-10.41L447.32-10.41Q447.32-7.93 446.43-6.09L446.43-6.09L446.43-6.09Q445.54-4.25 444.05-2.92L444.05-2.92L444.05-2.92Q442.56-1.59 440.53-0.83L440.53-0.83L440.53-0.83Q438.50-0.06 436.15 0.19L436.15 0.19L436.15-5.84L436.15-5.84Q438.31-6.22 439.48-7.20L439.48-7.20L439.48-7.20Q440.65-8.19 440.65-9.84L440.65-9.84L440.65-9.84Q440.65-11.49 439.35-12.41L439.35-12.41L439.35-12.41Q438.05-13.33 436.15-14.03L436.15-14.03Z" fill="#38619d"></path></g></g><style>text {
  font-size: 64px;
  font-family: Arial Black;
  dominant-baseline: central;
  text-anchor: middle;
}</style></svg>